<svg xmlns="http://www.w3.org/2000/svg" width="55" height="16" viewBox="0 0 55 16">
    <g fill="none" fill-rule="evenodd">
        <g fill-rule="nonzero">
            <g fill="#FFF">
                <path d="M5.807 11.238H2.253v3.91H.04V.334h5.767c2.883.02 5.21 2.448 5.21 5.452s-2.334 5.43-5.21 5.451zm-.04-1.817c1.696 0 3.057-1.636 3.057-3.634 0-1.992-1.361-3.635-3.058-3.635H2.253v7.269h3.513zM16.83 13.33l-.724 1.817h-4.117V.335h2.193v12.988h2.648zM38.535.335l-4.653 9.36v5.452h-2.193V9.696L27.042.336h2.662l3.071 6.912L35.873.335zM24.521.329h-1.388l-6.035 14.825h2.367L23.824 3.58l4.358 11.573h2.367zM53.709 7.745a7.726 7.726 0 0 1-7.725 7.724 7.726 7.726 0 0 1-7.724-7.724A7.726 7.726 0 0 1 45.984.02C50.25.013 53.71 3.473 53.71 7.745z"/>
            </g>
            <g fill="#568A3F">
                <path d="M40.48 8.905a5.6 5.6 0 0 1 .368-3.628 5.615 5.615 0 0 1 2.562-2.662 6 6 0 0 1-.45 3.594 5.953 5.953 0 0 1-2.48 2.696z"/>
                <path d="M48.325 2.521a5.66 5.66 0 0 0-4.406-.134 6.506 6.506 0 0 1-.47 4.05 6.52 6.52 0 0 1-2.822 3.01 5.648 5.648 0 0 0 1.757 2.542s.422.556.395 1.18c-.026.624-.321 1.529-.321 1.529s.851-.369 1.374-.69c.738-.463 1.093-.839 1.093-.839a5.663 5.663 0 0 0 3.151-.315 6.543 6.543 0 0 1 .463-4.077 6.489 6.489 0 0 1 2.756-2.97 5.565 5.565 0 0 0-2.97-3.286z"/>
                <path d="M51.456 6.343a5.597 5.597 0 0 1-.369 3.641 5.625 5.625 0 0 1-2.494 2.629 5.936 5.936 0 0 1 .449-3.608 5.978 5.978 0 0 1 2.414-2.662z"/>
            </g>
        </g>
        <circle cx="53.709" cy="1.388" r="1" stroke="#FFF" stroke-width=".5"/>
        <text fill="#FFF" font-family="Helvetica" font-size="1.419">
            <tspan x="53.245" y="1.497">R</tspan>
        </text>
    </g>
</svg>
